<?xml version="1.0" encoding="UTF-8"?>
<!--Generator: Apple Native CoreSVG 175.5-->
<!DOCTYPE svg
PUBLIC "-//W3C//DTD SVG 1.1//EN"
       "http://www.w3.org/Graphics/SVG/1.1/DTD/svg11.dtd">
<svg version="1.1" xmlns="http://www.w3.org/2000/svg" xmlns:xlink="http://www.w3.org/1999/xlink" width="98.2422" height="98.9746">
 <g>
  <rect height="98.9746" opacity="0" width="98.2422" x="0" y="0"/>
  <path d="M76.709 66.3086C49.8047 66.3086 33.1055 50.0977 33.1055 24.0723C33.1055 16.6504 34.3262 10.1074 36.1328 6.5918C36.8652 5.17578 37.0117 4.49219 37.0117 3.51562C37.0117 1.9043 35.498 0 33.4473 0C33.0566 0 32.1289 0.146484 30.7617 0.683594C12.6953 8.00781 0 27.0508 0 47.5586C0 77.1973 21.5332 98.7793 51.1719 98.7793C72.4121 98.7793 89.6484 87.6465 97.5586 69.3848C98.1445 68.1152 98.2422 67.041 98.2422 66.5039C98.2422 64.502 96.5332 63.1348 95.0195 63.1348C94.2383 63.1348 93.6523 63.1836 92.4805 63.623C88.5254 65.2344 82.5684 66.3086 76.709 66.3086ZM7.66602 47.2168C7.66602 32.0312 15.5762 17.5781 28.2227 9.61914C26.6602 14.1602 25.8301 19.1895 25.8301 24.7559C25.8301 55.2734 44.4336 73.4375 75.5859 73.4375C80.6152 73.4375 84.8633 72.8516 88.916 71.4355C81.4941 83.6914 67.1875 91.1621 51.4648 91.1621C26.123 91.1621 7.66602 72.7051 7.66602 47.2168Z" fill="#ffffff" fill-opacity="0.85"/>
 </g>
</svg>
