<?xml version="1.0" encoding="utf-8"?>
<!-- Generator: Adobe Illustrator 25.1.0, SVG Export Plug-In . SVG Version: 6.00 Build 0)  -->
<svg version="1.1" id="Livello_1" xmlns="http://www.w3.org/2000/svg" xmlns:xlink="http://www.w3.org/1999/xlink" x="0px" y="0px"
	 viewBox="0 0 105.6 106" style="enable-background:new 0 0 105.6 106;" xml:space="preserve">
<style type="text/css">
	.st0{fill-opacity:0.85;}
</style>
<g>
	<path class="st0" d="M52.8,77.9c13.6,0,24.9-11.3,24.9-24.9c0-13.7-11.3-25-24.9-25S27.9,39.3,27.9,53
		C27.9,66.6,39.2,77.9,52.8,77.9z M52.8,70.4c-9.5,0-17.4-7.9-17.4-17.4c0-9.6,7.9-17.5,17.4-17.5S70.2,43.4,70.2,53
		C70.2,62.5,62.3,70.4,52.8,70.4z M52.8,19c2.3,0,4.2-1.9,4.2-4.2V4.2C57,1.9,55.1,0,52.8,0c-2.3,0-4.2,1.9-4.2,4.2v10.5
		C48.6,17.1,50.5,19,52.8,19z M76.8,29c1.7,1.6,4.3,1.7,6,0l7.5-7.5c1.6-1.6,1.6-4.3,0-6c-1.6-1.6-4.3-1.6-6,0L76.8,23
		C75.1,24.7,75.1,27.4,76.8,29z M86.7,53c0,2.3,2,4.2,4.2,4.2h10.5c2.3,0,4.2-1.9,4.2-4.2s-1.9-4.2-4.2-4.2H90.9
		C88.6,48.7,86.7,50.7,86.7,53z M76.8,77c-1.6,1.7-1.6,4.3,0,6l7.5,7.6c1.7,1.6,4.3,1.5,6,0c1.6-1.7,1.6-4.3,0-6L82.7,77
		C81.1,75.4,78.4,75.4,76.8,77z M52.8,87c-2.3,0-4.2,1.9-4.2,4.2v10.5c0,2.3,1.9,4.2,4.2,4.2c2.3,0,4.2-1.9,4.2-4.2V91.2
		C57,88.9,55.1,87,52.8,87z M28.9,77c-1.7-1.6-4.4-1.6-6,0l-7.5,7.5c-1.6,1.6-1.6,4.3,0,6c1.6,1.6,4.3,1.6,6,0l7.5-7.5
		C30.4,81.3,30.4,78.6,28.9,77z M18.9,53c0-2.3-2-4.2-4.2-4.2H4.2c-2.3,0-4.2,2-4.2,4.2s1.9,4.2,4.2,4.2h10.5
		C17,57.2,18.9,55.3,18.9,53z M28.8,29c1.6-1.6,1.6-4.3,0-6l-7.5-7.5c-1.6-1.6-4.3-1.6-6,0c-1.6,1.7-1.6,4.4,0,6l7.5,7.5
		C24.5,30.6,27.1,30.6,28.8,29z"/>
</g>
</svg>
